<svg xmlns="http://www.w3.org/2000/svg" width="1884" height="578" viewBox="0 0 1884 578" fill="none"><mask id="path-1-outside-1_2002_327" maskUnits="userSpaceOnUse" x="-0.611328" y="-0.889648" width="1884" height="579" fill="black"><rect fill="white" x="-0.611328" y="-0.889648" width="1884" height="579"></rect><path d="M2.50974 566.11C10.4897 558.55 16.7897 544.27 21.4097 523.27C26.4497 501.85 28.9697 477.91 28.9697 451.45V176.14C28.9697 149.68 26.4497 125.95 21.4097 104.95C16.7897 83.5303 10.4897 69.0403 2.50974 61.4803H71.1797C81.6797 61.4803 94.0697 59.8003 108.35 56.4403C110.03 56.0203 114.02 55.1803 120.32 53.9203C127.04 52.6603 133.97 52.0303 141.11 52.0303C165.47 52.0303 188.99 56.4403 211.67 65.2603C234.77 74.0803 254.09 89.2003 269.63 110.62C285.17 131.62 292.94 159.76 292.94 195.04C292.94 242.5 274.67 276.73 238.13 297.73C263.75 307.39 285.17 323.56 302.39 346.24C319.61 368.92 328.22 399.79 328.22 438.85C328.22 485.05 312.89 519.49 282.23 542.17C251.57 564.85 212.93 576.19 166.31 576.19C147.41 576.19 127.88 574.09 107.72 569.89C93.4397 567.37 82.9397 566.11 76.2197 566.11H2.50974ZM76.2197 451.45C76.2197 478.33 81.4697 500.17 91.9697 516.97C102.47 533.77 115.07 545.74 129.77 552.88C144.89 560.02 159.8 563.59 174.5 563.59C188.36 563.59 203.27 560.86 219.23 555.4C235.19 549.52 249.26 537.97 261.44 520.75C274.04 503.53 280.34 479.38 280.34 448.3C280.34 439.9 279.71 430.66 278.45 420.58C273.83 376.9 260.18 346.03 237.5 327.97C215.24 309.91 190.25 300.88 162.53 300.88C104.99 300.88 76.2197 349.6 76.2197 447.04V451.45ZM76.2197 361.36C79.9997 342.46 89.8697 325.03 105.83 309.07C122.21 293.11 145.52 285.13 175.76 285.13C187.1 285.13 198.23 286.39 209.15 288.91C219.65 280.51 228.05 269.17 234.35 254.89C241.07 240.61 244.43 223.18 244.43 202.6C244.43 194.2 243.8 185.38 242.54 176.14C236.24 129.1 223.22 98.8603 203.48 85.4203C183.74 71.5603 162.11 64.6303 138.59 64.6303C112.55 64.6303 95.5397 74.7103 87.5597 94.8703C79.9997 114.61 76.2197 141.49 76.2197 175.51V361.36ZM551.481 576.19C514.521 576.19 480.501 566.53 449.421 547.21C418.341 527.47 393.561 497.86 375.081 458.38C356.601 418.48 347.361 370.18 347.361 313.48C347.361 256.78 356.601 208.9 375.081 169.84C393.561 130.36 418.341 100.96 449.421 81.6403C480.501 61.9003 514.521 52.0303 551.481 52.0303C588.441 52.0303 622.461 61.9003 653.541 81.6403C685.041 100.96 710.031 130.36 728.511 169.84C747.411 209.32 756.861 257.2 756.861 313.48C756.861 370.18 747.411 418.27 728.511 457.75C710.031 497.23 685.041 526.84 653.541 546.58C622.461 566.32 588.441 576.19 551.481 576.19ZM402.171 313.48C407.211 373.54 418.551 421.84 436.191 458.38C453.831 494.92 474.621 520.96 498.561 536.5C522.501 551.62 547.491 559.18 573.531 559.18C610.491 559.18 641.361 544.06 666.141 513.82C691.341 483.16 703.941 432.97 703.941 363.25C703.941 347.71 703.311 331.12 702.051 313.48C697.011 253.42 685.461 205.33 667.401 169.21C649.761 132.67 628.761 106.84 604.401 91.7203C580.461 76.6003 555.471 69.0403 529.431 69.0403C492.891 69.0403 462.231 84.1603 437.451 114.4C412.671 144.64 400.281 194.41 400.281 263.71C400.281 279.25 400.911 295.84 402.171 313.48ZM544.551 1.00034H559.671L583.611 41.3203H569.121L552.111 12.9703L535.101 41.3203H520.611L544.551 1.00034ZM853.335 171.73C840.315 150.31 828.975 133.09 819.315 120.07V451.45C819.315 477.91 821.625 501.85 826.245 523.27C831.285 544.27 837.795 558.55 845.775 566.11H780.255C788.235 558.55 794.535 544.27 799.155 523.27C804.195 501.85 806.715 477.91 806.715 451.45V103.69C789.075 81.0103 773.745 66.9403 760.725 61.4803H870.345C868.665 65.6803 867.825 69.4603 867.825 72.8203C867.825 91.7203 881.895 124.69 910.035 171.73L1090.21 472.24V176.14C1090.21 149.68 1087.69 125.95 1082.65 104.95C1078.03 83.5303 1071.73 69.0403 1063.75 61.4803H1129.27C1121.29 69.0403 1114.78 83.5303 1109.74 104.95C1105.12 125.95 1102.81 149.68 1102.81 176.14V566.11H1090.21L853.335 171.73ZM1178.4 176.14C1178.4 149.68 1175.88 125.95 1170.84 104.95C1166.22 83.5303 1159.92 69.0403 1151.94 61.4803H1252.11C1244.13 69.0403 1237.62 83.5303 1232.58 104.95C1227.96 125.95 1225.65 149.68 1225.65 176.14V397.9C1225.65 508.36 1267.86 563.59 1352.28 563.59C1387.56 563.59 1415.7 558.55 1436.7 548.47C1458.12 538.39 1473.87 521.38 1483.95 497.44C1494.45 473.08 1499.7 439.9 1499.7 397.9V176.14C1499.7 149.68 1497.18 125.95 1492.14 104.95C1487.52 83.5303 1481.22 69.0403 1473.24 61.4803H1538.76C1530.78 69.0403 1524.27 83.5303 1519.23 104.95C1514.61 125.95 1512.3 149.68 1512.3 176.14V397.9V403.57C1511.88 448.51 1505.37 483.58 1492.77 508.78C1480.17 533.98 1462.32 551.62 1439.22 561.7C1416.54 571.36 1387.56 576.19 1352.28 576.19C1238.04 576.19 1180.08 518.65 1178.4 403.57V176.14ZM1710.34 576.19C1668.76 576.19 1634.11 568 1606.39 551.62C1578.67 535.24 1559.98 511.93 1550.32 481.69L1601.35 416.8C1601.35 445.36 1606.18 470.77 1615.84 493.03C1625.92 515.29 1639.78 532.72 1657.42 545.32C1675.48 557.5 1696.06 563.59 1719.16 563.59C1738.06 563.59 1756.12 558.76 1773.34 549.1C1790.98 539.02 1805.05 524.95 1815.55 506.89C1826.47 488.41 1831.93 467.2 1831.93 443.26C1831.93 421.42 1826.68 402.94 1816.18 387.82C1805.68 372.7 1792.45 360.31 1776.49 350.65C1760.95 340.57 1739.74 329.23 1712.86 316.63C1683.04 302.35 1659.1 289.33 1641.04 277.57C1622.98 265.81 1607.65 250.27 1595.05 230.95C1582.45 211.63 1576.15 187.69 1576.15 159.13C1576.15 137.71 1582.45 118.81 1595.05 102.43C1607.65 86.0503 1624.45 73.6603 1645.45 65.2603C1666.87 56.4403 1689.97 52.0303 1714.75 52.0303C1733.65 52.0303 1749.61 54.1303 1762.63 58.3303C1776.07 62.5303 1790.77 68.4103 1806.73 75.9703C1817.65 81.4303 1826.89 85.6303 1834.45 88.5703C1842.43 91.0903 1850.83 92.3503 1859.65 92.3503L1815.55 147.79C1812.19 122.17 1802.11 102.01 1785.31 87.3103C1768.93 72.1903 1746.46 64.6303 1717.9 64.6303C1702.36 64.6303 1687.45 67.7803 1673.17 74.0803C1658.89 79.9603 1647.13 88.7803 1637.89 100.54C1629.07 111.88 1624.66 125.11 1624.66 140.23C1624.66 163.33 1629.91 182.65 1640.41 198.19C1650.91 213.73 1663.93 226.33 1679.47 235.99C1695.01 245.23 1716.22 255.94 1743.1 268.12C1773.76 282.4 1798.12 295.42 1816.18 307.18C1834.66 318.94 1850.2 335.32 1862.8 356.32C1875.82 376.9 1882.33 403.15 1882.33 435.07C1882.33 463.63 1874.56 488.62 1859.02 510.04C1843.48 531.46 1822.69 547.84 1796.65 559.18C1770.61 570.52 1741.84 576.19 1710.34 576.19Z"></path></mask><path d="M2.50974 566.11L1.822 565.384L0.00015836 567.11H2.50974V566.11ZM21.4097 523.27L20.4363 523.041L20.4347 523.048L20.4331 523.055L21.4097 523.27ZM21.4097 104.95L20.4322 105.161L20.4347 105.172L20.4374 105.184L21.4097 104.95ZM2.50974 61.4803V60.4803H0.000158926L1.822 62.2063L2.50974 61.4803ZM108.35 56.4403L108.579 57.4139L108.592 57.4105L108.35 56.4403ZM120.32 53.9203L120.135 52.9374L120.124 52.9398L120.32 53.9203ZM211.67 65.2603L211.307 66.1924L211.313 66.1946L211.67 65.2603ZM269.63 110.62L268.82 111.208L268.826 111.215L269.63 110.62ZM238.13 297.73L237.631 296.863L235.795 297.919L237.777 298.666L238.13 297.73ZM302.39 346.24L301.593 346.845L301.593 346.845L302.39 346.24ZM282.23 542.17L282.824 542.974L282.23 542.17ZM107.72 569.89L107.924 568.911L107.909 568.908L107.894 568.906L107.72 569.89ZM91.9697 516.97L91.1217 517.5L91.1217 517.5L91.9697 516.97ZM129.77 552.88L129.333 553.78L129.343 553.785L129.77 552.88ZM219.23 555.4L219.553 556.347L219.564 556.343L219.575 556.339L219.23 555.4ZM261.44 520.75L260.633 520.16L260.628 520.166L260.623 520.173L261.44 520.75ZM278.45 420.58L277.455 420.686L277.456 420.695L277.457 420.704L278.45 420.58ZM237.5 327.97L236.87 328.747L236.877 328.753L237.5 327.97ZM76.2197 361.36H75.2197L77.2003 361.556L76.2197 361.36ZM105.83 309.07L105.132 308.354L105.123 308.363L105.83 309.07ZM209.15 288.91L208.925 289.885L209.396 289.994L209.774 289.691L209.15 288.91ZM234.35 254.89L233.445 254.465L233.44 254.476L233.435 254.487L234.35 254.89ZM242.54 176.14L241.549 176.273L241.549 176.275L242.54 176.14ZM203.48 85.4203L202.905 86.2388L202.911 86.2429L202.917 86.2469L203.48 85.4203ZM87.5597 94.8703L86.6299 94.5023L86.6259 94.5127L87.5597 94.8703ZM2.50974 566.11L3.19749 566.836C11.4067 559.059 17.7578 544.524 22.3864 523.485L21.4097 523.27L20.4331 523.055C15.8217 544.016 9.5728 558.042 1.822 565.384L2.50974 566.11ZM21.4097 523.27L22.3832 523.499C27.444 501.991 29.9697 477.972 29.9697 451.45H28.9697H27.9697C27.9697 477.848 25.4555 501.71 20.4363 523.041L21.4097 523.27ZM28.9697 451.45H29.9697V176.14H28.9697H27.9697V451.45H28.9697ZM28.9697 176.14H29.9697C29.9697 149.619 27.444 125.808 22.3821 104.717L21.4097 104.95L20.4374 105.184C25.4554 126.092 27.9697 149.742 27.9697 176.14H28.9697ZM21.4097 104.95L22.3873 104.739C17.7598 83.2849 11.4101 68.5347 3.19749 60.7544L2.50974 61.4803L1.822 62.2063C9.56937 69.5459 15.8197 83.7758 20.4322 105.161L21.4097 104.95ZM2.50974 61.4803V62.4803H71.1797V61.4803V60.4803H2.50974V61.4803ZM71.1797 61.4803V62.4803C81.7805 62.4803 94.2509 60.785 108.579 57.4138L108.35 56.4403L108.121 55.4669C93.8886 58.8156 81.579 60.4803 71.1797 60.4803V61.4803ZM108.35 56.4403L108.592 57.4105C110.244 56.9975 114.208 56.1624 120.516 54.9009L120.32 53.9203L120.124 52.9398C113.831 54.1982 109.815 55.0432 108.107 55.4702L108.35 56.4403ZM120.32 53.9203L120.504 54.9032C127.161 53.6551 134.029 53.0303 141.11 53.0303V52.0303V51.0303C133.911 51.0303 126.919 51.6656 120.135 52.9375L120.32 53.9203ZM141.11 52.0303V53.0303C165.346 53.0303 188.743 57.4173 211.307 66.1923L211.67 65.2603L212.032 64.3283C189.237 55.4633 165.594 51.0303 141.11 51.0303V52.0303ZM211.67 65.2603L211.313 66.1946C234.219 74.9404 253.386 89.9332 268.82 111.208L269.63 110.62L270.439 110.033C254.794 88.4675 235.321 73.2203 212.026 64.3261L211.67 65.2603ZM269.63 110.62L268.826 111.215C284.201 131.992 291.94 159.9 291.94 195.04H292.94H293.94C293.94 159.62 286.139 131.249 270.434 110.025L269.63 110.62ZM292.94 195.04H291.94C291.94 242.197 273.817 276.067 237.631 296.863L238.13 297.73L238.628 298.597C275.523 277.393 293.94 242.804 293.94 195.04H292.94ZM238.13 297.73L237.777 298.666C263.214 308.257 284.482 324.309 301.593 346.845L302.39 346.24L303.186 345.636C285.857 322.812 264.286 306.524 238.483 296.795L238.13 297.73ZM302.39 346.24L301.593 346.845C318.64 369.297 327.22 399.929 327.22 438.85H328.22H329.22C329.22 399.652 320.58 368.544 303.186 345.636L302.39 346.24ZM328.22 438.85H327.22C327.22 484.809 311.985 518.916 281.635 541.366L282.23 542.17L282.824 542.974C313.794 520.065 329.22 485.292 329.22 438.85H328.22ZM282.23 542.17L281.635 541.366C251.183 563.893 212.764 575.19 166.31 575.19V576.19V577.19C213.095 577.19 251.957 565.808 282.824 542.974L282.23 542.17ZM166.31 576.19V575.19C147.484 575.19 128.023 573.099 107.924 568.911L107.72 569.89L107.516 570.869C127.737 575.082 147.335 577.19 166.31 577.19V576.19ZM107.72 569.89L107.894 568.906C93.6062 566.384 83.0331 565.11 76.2197 565.11V566.11V567.11C82.8464 567.11 93.2733 568.356 107.546 570.875L107.72 569.89ZM76.2197 566.11V565.11H2.50974V566.11V567.11H76.2197V566.11ZM76.2197 451.45H75.2197C75.2197 478.453 80.4929 500.494 91.1217 517.5L91.9697 516.97L92.8177 516.44C82.4465 499.846 77.2197 478.208 77.2197 451.45H76.2197ZM91.9697 516.97L91.1217 517.5C101.7 534.426 114.431 546.542 129.333 553.78L129.77 552.88L130.207 551.981C115.708 544.939 103.239 533.115 92.8177 516.44L91.9697 516.97ZM129.77 552.88L129.343 553.785C144.578 560.979 159.633 564.59 174.5 564.59V563.59V562.59C159.966 562.59 145.202 559.062 130.197 551.976L129.77 552.88ZM174.5 563.59V564.59C188.491 564.59 203.511 561.835 219.553 556.347L219.23 555.4L218.906 554.454C203.028 559.886 188.229 562.59 174.5 562.59V563.59ZM219.23 555.4L219.575 556.339C235.766 550.374 249.988 538.673 262.256 521.328L261.44 520.75L260.623 520.173C248.532 537.268 234.613 548.667 218.884 554.462L219.23 555.4ZM261.44 520.75L262.247 521.341C275.018 503.887 281.34 479.5 281.34 448.3H280.34H279.34C279.34 479.261 273.062 503.173 260.633 520.16L261.44 520.75ZM280.34 448.3H281.34C281.34 439.851 280.706 430.569 279.442 420.456L278.45 420.58L277.457 420.704C278.713 430.751 279.34 439.949 279.34 448.3H280.34ZM278.45 420.58L279.444 420.475C274.81 376.664 261.099 345.484 238.123 327.188L237.5 327.97L236.877 328.753C259.261 346.577 272.849 377.137 277.455 420.686L278.45 420.58ZM237.5 327.97L238.13 327.194C215.698 308.995 190.488 299.88 162.53 299.88V300.88V301.88C190.012 301.88 214.781 310.826 236.87 328.747L237.5 327.97ZM162.53 300.88V299.88C133.413 299.88 111.505 312.241 96.9362 336.912C82.4161 361.501 75.2197 398.255 75.2197 447.04H76.2197H77.2197C77.2197 398.386 84.4083 362.06 98.6583 337.929C112.86 313.88 134.106 301.88 162.53 301.88V300.88ZM76.2197 447.04H75.2197V451.45H76.2197H77.2197V447.04H76.2197ZM76.2197 361.36L77.2003 361.556C80.9353 342.881 90.692 325.622 106.537 309.777L105.83 309.07L105.123 308.363C89.0475 324.438 79.0641 342.039 75.2392 361.164L76.2197 361.36ZM105.83 309.07L106.528 309.787C122.667 294.061 145.694 286.13 175.76 286.13V285.13V284.13C145.346 284.13 121.753 292.159 105.132 308.354L105.83 309.07ZM175.76 285.13V286.13C187.025 286.13 198.08 287.382 208.925 289.885L209.15 288.91L209.375 287.936C198.38 285.399 187.175 284.13 175.76 284.13V285.13ZM209.15 288.91L209.774 289.691C220.419 281.176 228.91 269.698 235.265 255.294L234.35 254.89L233.435 254.487C227.189 268.643 218.881 279.845 208.525 288.129L209.15 288.91ZM234.35 254.89L235.255 255.316C242.053 240.869 245.43 223.285 245.43 202.6H244.43H243.43C243.43 223.076 240.086 240.352 233.445 254.465L234.35 254.89ZM244.43 202.6H245.43C245.43 194.151 244.796 185.285 243.531 176.005L242.54 176.14L241.549 176.275C242.803 185.475 243.43 194.25 243.43 202.6H244.43ZM242.54 176.14L243.531 176.008C237.226 128.932 224.165 98.2939 204.043 84.5937L203.48 85.4203L202.917 86.2469C222.275 99.4268 235.253 129.269 241.549 176.273L242.54 176.14ZM203.48 85.4203L204.054 84.6019C184.151 70.6269 162.321 63.6303 138.59 63.6303V64.6303V65.6303C161.899 65.6303 183.329 72.4937 202.905 86.2388L203.48 85.4203ZM138.59 64.6303V63.6303C125.446 63.6303 114.493 66.174 105.792 71.33C97.0781 76.4941 90.6932 84.2373 86.6299 94.5023L87.5597 94.8703L88.4896 95.2384C92.4063 85.3434 98.5164 77.9666 106.812 73.0506C115.121 68.1267 125.694 65.6303 138.59 65.6303V64.6303ZM87.5597 94.8703L86.6259 94.5127C79.0037 114.415 75.2197 141.433 75.2197 175.51H76.2197H77.2197C77.2197 141.547 80.9958 114.806 88.4936 95.228L87.5597 94.8703ZM76.2197 175.51H75.2197V361.36H76.2197H77.2197V175.51H76.2197ZM449.421 547.21L448.885 548.055L448.893 548.06L449.421 547.21ZM375.081 458.38L374.174 458.801L374.175 458.804L375.081 458.38ZM375.081 169.84L375.985 170.268L375.987 170.264L375.081 169.84ZM449.421 81.6403L449.949 82.4896L449.957 82.4844L449.421 81.6403ZM653.541 81.6403L653.005 82.4844L653.011 82.4887L653.018 82.4928L653.541 81.6403ZM728.511 169.84L727.605 170.264L727.609 170.272L728.511 169.84ZM728.511 457.75L727.609 457.319L727.605 457.326L728.511 457.75ZM653.541 546.58L653.01 545.733L653.005 545.736L653.541 546.58ZM402.171 313.48L401.173 313.552L401.174 313.564L402.171 313.48ZM436.191 458.38L437.091 457.946L437.091 457.946L436.191 458.38ZM498.561 536.5L498.016 537.339L498.027 537.346L498.561 536.5ZM666.141 513.82L665.368 513.185L665.367 513.187L666.141 513.82ZM702.051 313.48L703.048 313.409L703.047 313.397L702.051 313.48ZM667.401 169.21L666.5 169.645L666.506 169.658L667.401 169.21ZM604.401 91.7203L603.867 92.5659L603.874 92.57L604.401 91.7203ZM437.451 114.4L438.224 115.034L438.224 115.034L437.451 114.4ZM544.551 1.00034V0.00034225H543.982L543.691 0.489803L544.551 1.00034ZM559.671 1.00034L560.531 0.489803L560.24 0.00034225H559.671V1.00034ZM583.611 41.3203V42.3203H585.368L584.471 40.8098L583.611 41.3203ZM569.121 41.3203L568.263 41.8348L568.555 42.3203H569.121V41.3203ZM552.111 12.9703L552.968 12.4558L552.111 11.0267L551.253 12.4558L552.111 12.9703ZM535.101 41.3203V42.3203H535.667L535.958 41.8348L535.101 41.3203ZM520.611 41.3203L519.751 40.8098L518.854 42.3203H520.611V41.3203ZM551.481 576.19V575.19C514.706 575.19 480.869 565.582 449.949 546.361L449.421 547.21L448.893 548.06C480.133 567.479 514.336 577.19 551.481 577.19V576.19ZM449.421 547.21L449.957 546.366C419.065 526.746 394.401 497.296 375.987 457.956L375.081 458.38L374.175 458.804C392.721 498.425 417.617 528.195 448.885 548.054L449.421 547.21ZM375.081 458.38L375.988 457.96C357.584 418.224 348.361 370.076 348.361 313.48H347.361H346.361C346.361 370.285 355.618 418.737 374.174 458.801L375.081 458.38ZM347.361 313.48H348.361C348.361 256.884 357.585 209.159 375.985 170.268L375.081 169.84L374.177 169.413C355.617 208.641 346.361 256.677 346.361 313.48H347.361ZM375.081 169.84L375.987 170.264C394.4 130.926 419.063 101.689 449.949 82.4896L449.421 81.6403L448.893 80.791C417.619 100.231 392.721 129.795 374.175 169.416L375.081 169.84ZM449.421 81.6403L449.957 82.4844C480.876 62.8467 514.71 53.0303 551.481 53.0303V52.0303V51.0303C514.332 51.0303 480.126 60.954 448.885 80.7962L449.421 81.6403ZM551.481 52.0303V53.0303C588.252 53.0303 622.086 62.8467 653.005 82.4844L653.541 81.6403L654.077 80.7962C622.836 60.954 588.63 51.0303 551.481 51.0303V52.0303ZM653.541 81.6403L653.018 82.4928C684.323 101.693 709.193 130.929 727.605 170.264L728.511 169.84L729.417 169.416C710.869 129.792 685.759 100.227 654.064 80.7879L653.541 81.6403ZM728.511 169.84L727.609 170.272C746.429 209.585 755.861 257.309 755.861 313.48H756.861H757.861C757.861 257.092 748.393 209.056 729.413 169.409L728.511 169.84ZM756.861 313.48H755.861C755.861 370.073 746.428 418.007 727.609 457.319L728.511 457.75L729.413 458.182C748.394 418.534 757.861 370.287 757.861 313.48H756.861ZM728.511 457.75L727.605 457.326C709.192 496.663 684.32 526.112 653.01 545.733L653.541 546.58L654.072 547.428C685.761 527.569 710.869 497.798 729.417 458.174L728.511 457.75ZM653.541 546.58L653.005 545.736C622.086 565.374 588.252 575.19 551.481 575.19V576.19V577.19C588.63 577.19 622.836 567.267 654.077 547.424L653.541 546.58ZM402.171 313.48L401.174 313.564C406.22 373.692 417.578 422.125 435.29 458.815L436.191 458.38L437.091 457.946C419.524 421.556 408.202 373.388 403.167 313.397L402.171 313.48ZM436.191 458.38L435.29 458.815C452.978 495.454 473.872 521.666 498.016 537.339L498.561 536.5L499.105 535.662C475.37 520.255 454.684 494.387 437.091 457.946L436.191 458.38ZM498.561 536.5L498.027 537.346C522.112 552.558 547.285 560.18 573.531 560.18V559.18V558.18C547.696 558.18 522.89 550.683 499.095 535.655L498.561 536.5ZM573.531 559.18V560.18C610.81 560.18 641.957 544.911 666.914 514.454L666.141 513.82L665.367 513.187C640.765 543.21 610.172 558.18 573.531 558.18V559.18ZM666.141 513.82L666.913 514.455C692.337 483.524 704.941 433.044 704.941 363.25H703.941H702.941C702.941 432.896 690.345 482.797 665.368 513.185L666.141 513.82ZM703.941 363.25H704.941C704.941 347.684 704.31 331.07 703.048 313.409L702.051 313.48L701.053 313.552C702.312 331.171 702.941 347.737 702.941 363.25H703.941ZM702.051 313.48L703.047 313.397C698.002 253.267 686.433 205.038 668.295 168.763L667.401 169.21L666.506 169.658C684.489 205.622 696.02 253.574 701.054 313.564L702.051 313.48ZM667.401 169.21L668.301 168.776C650.612 132.132 629.503 106.124 604.928 90.8707L604.401 91.7203L603.874 92.57C628.019 107.557 648.91 133.208 666.5 169.645L667.401 169.21ZM604.401 91.7203L604.935 90.8748C580.85 75.6631 555.676 68.0403 529.431 68.0403V69.0403V70.0403C555.265 70.0403 580.072 77.5376 603.867 92.5658L604.401 91.7203ZM529.431 69.0403V68.0403C492.568 68.0403 461.632 83.3133 436.677 113.767L437.451 114.4L438.224 115.034C462.83 85.0074 493.214 70.0403 529.431 70.0403V69.0403ZM437.451 114.4L436.677 113.767C411.674 144.279 399.281 194.339 399.281 263.71H400.281H401.281C401.281 194.482 413.667 145.002 438.224 115.034L437.451 114.4ZM400.281 263.71H399.281C399.281 279.277 399.912 295.891 401.173 313.552L402.171 313.48L403.168 313.409C401.91 295.79 401.281 279.224 401.281 263.71H400.281ZM544.551 1.00034V2.00034H559.671V1.00034V0.00034225H544.551V1.00034ZM559.671 1.00034L558.811 1.51088L582.751 41.8309L583.611 41.3203L584.471 40.8098L560.531 0.489803L559.671 1.00034ZM583.611 41.3203V40.3203H569.121V41.3203V42.3203H583.611V41.3203ZM569.121 41.3203L569.978 40.8058L552.968 12.4558L552.111 12.9703L551.253 13.4848L568.263 41.8348L569.121 41.3203ZM552.111 12.9703L551.253 12.4558L534.243 40.8058L535.101 41.3203L535.958 41.8348L552.968 13.4848L552.111 12.9703ZM535.101 41.3203V40.3203H520.611V41.3203V42.3203H535.101V41.3203ZM520.611 41.3203L521.471 41.8309L545.411 1.51088L544.551 1.00034L543.691 0.489803L519.751 40.8098L520.611 41.3203ZM853.335 171.73L854.192 171.215L854.189 171.211L853.335 171.73ZM819.315 120.07L820.118 119.475L818.315 117.044V120.07H819.315ZM826.245 523.27L825.267 523.481L825.27 523.492L825.272 523.504L826.245 523.27ZM845.775 566.11V567.11H848.284L846.462 565.384L845.775 566.11ZM780.255 566.11L779.567 565.384L777.745 567.11H780.255V566.11ZM799.155 523.27L798.181 523.041L798.18 523.048L798.178 523.055L799.155 523.27ZM806.715 103.69H807.715V103.347L807.504 103.076L806.715 103.69ZM760.725 61.4803V60.4803L760.338 62.4025L760.725 61.4803ZM870.345 61.4803L871.273 61.8517L871.822 60.4803H870.345V61.4803ZM910.035 171.73L909.176 172.244L909.177 172.245L910.035 171.73ZM1090.21 472.24L1089.36 472.755L1091.21 475.853V472.24H1090.21ZM1082.65 104.95L1081.68 105.161L1081.68 105.172L1081.68 105.184L1082.65 104.95ZM1063.75 61.4803V60.4803H1061.25L1063.07 62.2063L1063.75 61.4803ZM1129.27 61.4803L1129.96 62.2063L1131.78 60.4803H1129.27V61.4803ZM1109.74 104.95L1108.77 104.721L1108.77 104.728L1108.77 104.735L1109.74 104.95ZM1102.81 566.11V567.11H1103.81V566.11H1102.81ZM1090.21 566.11L1089.36 566.625L1089.65 567.11H1090.21V566.11ZM853.335 171.73L854.189 171.211C841.161 149.777 829.803 132.529 820.118 119.475L819.315 120.07L818.512 120.666C828.146 133.652 839.468 150.844 852.48 172.25L853.335 171.73ZM819.315 120.07H818.315V451.45H819.315H820.315V120.07H819.315ZM819.315 451.45H818.315C818.315 477.967 820.629 501.979 825.267 523.481L826.245 523.27L827.222 523.06C822.62 501.721 820.315 477.854 820.315 451.45H819.315ZM826.245 523.27L825.272 523.504C830.321 544.541 836.885 559.066 845.087 566.836L845.775 566.11L846.462 565.384C838.704 558.035 832.248 544 827.217 523.037L826.245 523.27ZM845.775 566.11V565.11H780.255V566.11V567.11H845.775V566.11ZM780.255 566.11L780.942 566.836C789.152 559.059 795.503 544.524 800.131 523.485L799.155 523.27L798.178 523.055C793.567 544.016 787.318 558.042 779.567 565.384L780.255 566.11ZM799.155 523.27L800.128 523.499C805.189 501.991 807.715 477.972 807.715 451.45H806.715H805.715C805.715 477.848 803.2 501.71 798.181 523.041L799.155 523.27ZM806.715 451.45H807.715V103.69H806.715H805.715V451.45H806.715ZM806.715 103.69L807.504 103.076C789.847 80.3741 774.384 66.124 761.111 60.5581L760.725 61.4803L760.338 62.4025C773.106 67.7567 788.303 81.6465 805.925 104.304L806.715 103.69ZM760.725 61.4803V62.4803H870.345V61.4803V60.4803H760.725V61.4803ZM870.345 61.4803L869.416 61.1089C867.704 65.3886 866.825 69.2974 866.825 72.8203H867.825H868.825C868.825 69.6233 869.625 65.9721 871.273 61.8517L870.345 61.4803ZM867.825 72.8203H866.825C866.825 82.4779 870.408 95.5975 877.457 112.115C884.517 128.658 895.094 148.703 909.176 172.244L910.035 171.73L910.893 171.217C896.835 147.718 886.307 127.758 879.297 111.33C872.276 94.8781 868.825 82.0627 868.825 72.8203H867.825ZM910.035 171.73L909.177 172.245L1089.36 472.755L1090.21 472.24L1091.07 471.726L910.892 171.216L910.035 171.73ZM1090.21 472.24H1091.21V176.14H1090.21H1089.21V472.24H1090.21ZM1090.21 176.14H1091.21C1091.21 149.619 1088.69 125.808 1083.63 104.717L1082.65 104.95L1081.68 105.184C1086.7 126.092 1089.21 149.742 1089.21 176.14H1090.21ZM1082.65 104.95L1083.63 104.739C1079 83.2849 1072.66 68.5348 1064.44 60.7544L1063.75 61.4803L1063.07 62.2063C1070.81 69.5459 1077.06 83.7758 1081.68 105.161L1082.65 104.95ZM1063.75 61.4803V62.4803H1129.27V61.4803V60.4803H1063.75V61.4803ZM1129.27 61.4803L1128.59 60.7544C1120.38 68.5278 1113.82 83.2683 1108.77 104.721L1109.74 104.95L1110.72 105.179C1115.75 83.7923 1122.21 69.5528 1129.96 62.2063L1129.27 61.4803ZM1109.74 104.95L1108.77 104.735C1104.13 125.82 1101.81 149.624 1101.81 176.14H1102.81H1103.81C1103.81 149.737 1106.12 126.081 1110.72 105.165L1109.74 104.95ZM1102.81 176.14H1101.81V566.11H1102.81H1103.81V176.14H1102.81ZM1102.81 566.11V565.11H1090.21V566.11V567.11H1102.81V566.11ZM1090.21 566.11L1091.07 565.595L854.192 171.215L853.335 171.73L852.477 172.245L1089.36 566.625L1090.21 566.11ZM1170.84 104.95L1169.86 105.161L1169.86 105.172L1169.87 105.184L1170.84 104.95ZM1151.94 61.4803V60.4803H1149.43L1151.25 62.2063L1151.94 61.4803ZM1252.11 61.4803L1252.8 62.2063L1254.62 60.4803H1252.11V61.4803ZM1232.58 104.95L1231.61 104.721L1231.6 104.728L1231.6 104.735L1232.58 104.95ZM1436.7 548.47L1436.27 547.566L1436.27 547.569L1436.7 548.47ZM1483.95 497.44L1483.03 497.045L1483.03 497.052L1483.95 497.44ZM1492.14 104.95L1491.16 105.161L1491.16 105.172L1491.17 105.184L1492.14 104.95ZM1473.24 61.4803V60.4803H1470.73L1472.55 62.2063L1473.24 61.4803ZM1538.76 61.4803L1539.45 62.2063L1541.27 60.4803H1538.76V61.4803ZM1519.23 104.95L1518.26 104.721L1518.25 104.728L1518.25 104.735L1519.23 104.95ZM1512.3 403.57L1513.3 403.58V403.57H1512.3ZM1492.77 508.78L1493.66 509.228L1493.66 509.228L1492.77 508.78ZM1439.22 561.7L1439.61 562.62L1439.62 562.617L1439.22 561.7ZM1178.4 403.57H1177.4V403.578L1177.4 403.585L1178.4 403.57ZM1178.4 176.14H1179.4C1179.4 149.619 1176.87 125.808 1171.81 104.717L1170.84 104.95L1169.87 105.184C1174.89 126.092 1177.4 149.742 1177.4 176.14H1178.4ZM1170.84 104.95L1171.82 104.739C1167.19 83.2849 1160.84 68.5347 1152.63 60.7544L1151.94 61.4803L1151.25 62.2063C1159 69.5459 1165.25 83.7758 1169.86 105.161L1170.84 104.95ZM1151.94 61.4803V62.4803H1252.11V61.4803V60.4803H1151.94V61.4803ZM1252.11 61.4803L1251.42 60.7544C1243.22 68.5278 1236.65 83.2683 1231.61 104.721L1232.58 104.95L1233.55 105.179C1238.59 83.7923 1245.04 69.5528 1252.8 62.2063L1252.11 61.4803ZM1232.58 104.95L1231.6 104.735C1226.96 125.82 1224.65 149.624 1224.65 176.14H1225.65H1226.65C1226.65 149.737 1228.96 126.081 1233.56 105.165L1232.58 104.95ZM1225.65 176.14H1224.65V397.9H1225.65H1226.65V176.14H1225.65ZM1225.65 397.9H1224.65C1224.65 453.229 1235.22 494.91 1256.51 522.775C1277.85 550.691 1309.83 564.59 1352.28 564.59V563.59V562.59C1310.31 562.59 1278.98 548.874 1258.1 521.561C1237.19 494.196 1226.65 453.031 1226.65 397.9H1225.65ZM1352.28 563.59V564.59C1387.64 564.59 1415.95 559.541 1437.13 549.372L1436.7 548.47L1436.27 547.569C1415.45 557.559 1387.48 562.59 1352.28 562.59V563.59ZM1436.7 548.47L1437.13 549.375C1458.79 539.179 1474.71 521.972 1484.87 497.828L1483.95 497.44L1483.03 497.052C1473.03 520.789 1457.45 537.601 1436.27 547.566L1436.7 548.47ZM1483.95 497.44L1484.87 497.836C1495.44 473.3 1500.7 439.966 1500.7 397.9H1499.7H1498.7C1498.7 439.835 1493.46 472.861 1483.03 497.045L1483.95 497.44ZM1499.7 397.9H1500.7V176.14H1499.7H1498.7V397.9H1499.7ZM1499.7 176.14H1500.7C1500.7 149.619 1498.17 125.808 1493.11 104.717L1492.14 104.95L1491.17 105.184C1496.19 126.092 1498.7 149.742 1498.7 176.14H1499.7ZM1492.14 104.95L1493.12 104.739C1488.49 83.2849 1482.14 68.5347 1473.93 60.7544L1473.24 61.4803L1472.55 62.2063C1480.3 69.5459 1486.55 83.7758 1491.16 105.161L1492.14 104.95ZM1473.24 61.4803V62.4803H1538.76V61.4803V60.4803H1473.24V61.4803ZM1538.76 61.4803L1538.07 60.7544C1529.87 68.5278 1523.3 83.2683 1518.26 104.721L1519.23 104.95L1520.2 105.179C1525.24 83.7923 1531.69 69.5528 1539.45 62.2063L1538.76 61.4803ZM1519.23 104.95L1518.25 104.735C1513.61 125.82 1511.3 149.624 1511.3 176.14H1512.3H1513.3C1513.3 149.737 1515.61 126.081 1520.21 105.165L1519.23 104.95ZM1512.3 176.14H1511.3V397.9H1512.3H1513.3V176.14H1512.3ZM1512.3 397.9H1511.3V403.57H1512.3H1513.3V397.9H1512.3ZM1512.3 403.57L1511.3 403.561C1510.88 448.43 1504.38 483.327 1491.88 508.333L1492.77 508.78L1493.66 509.228C1506.36 483.834 1512.88 448.591 1513.3 403.58L1512.3 403.57ZM1492.77 508.78L1491.88 508.333C1479.37 533.35 1461.68 550.809 1438.82 560.784L1439.22 561.7L1439.62 562.617C1462.96 552.432 1480.97 534.611 1493.66 509.228L1492.77 508.78ZM1439.22 561.7L1438.83 560.78C1416.31 570.37 1387.48 575.19 1352.28 575.19V576.19V577.19C1387.64 577.19 1416.77 572.351 1439.61 562.62L1439.22 561.7ZM1352.28 576.19V575.19C1295.32 575.19 1252.56 560.846 1223.83 532.326C1195.1 503.804 1180.24 460.942 1179.4 403.556L1178.4 403.57L1177.4 403.585C1178.24 461.278 1193.2 504.727 1222.43 533.745C1251.66 562.765 1295 577.19 1352.28 577.19V576.19ZM1178.4 403.57H1179.4V176.14H1178.4H1177.4V403.57H1178.4ZM1606.39 551.62L1605.88 552.481L1606.39 551.62ZM1550.32 481.69L1549.53 481.072L1549.2 481.489L1549.36 481.995L1550.32 481.69ZM1601.35 416.8H1602.35V413.911L1600.56 416.182L1601.35 416.8ZM1615.84 493.03L1614.92 493.428L1614.92 493.436L1614.93 493.443L1615.84 493.03ZM1657.42 545.32L1656.84 546.134L1656.85 546.142L1656.86 546.149L1657.42 545.32ZM1773.34 549.1L1773.83 549.973L1773.83 549.969L1773.34 549.1ZM1815.55 506.89L1814.69 506.382L1814.68 506.388L1815.55 506.89ZM1816.18 387.82L1817 387.25L1817 387.25L1816.18 387.82ZM1776.49 350.65L1775.94 351.489L1775.96 351.498L1775.97 351.506L1776.49 350.65ZM1712.86 316.63L1712.42 317.532L1712.43 317.536L1712.86 316.63ZM1641.04 277.57L1641.58 276.732L1641.58 276.732L1641.04 277.57ZM1595.05 230.95L1594.21 231.497L1594.21 231.497L1595.05 230.95ZM1595.05 102.43L1594.25 101.821L1594.25 101.821L1595.05 102.43ZM1645.45 65.2603L1645.82 66.1889L1645.83 66.185L1645.45 65.2603ZM1762.63 58.3303L1762.32 59.2821L1762.33 59.2848L1762.63 58.3303ZM1806.73 75.9703L1807.17 75.0759L1807.16 75.0711L1807.15 75.0666L1806.73 75.9703ZM1834.45 88.5703L1834.08 89.5023L1834.11 89.5141L1834.15 89.5239L1834.45 88.5703ZM1859.65 92.3503L1860.43 92.9729L1861.72 91.3503H1859.65V92.3503ZM1815.55 147.79L1814.55 147.92L1814.86 150.258L1816.33 148.413L1815.55 147.79ZM1785.31 87.3103L1784.63 88.0451L1784.64 88.0541L1784.65 88.0629L1785.31 87.3103ZM1673.17 74.0803L1673.55 75.005L1673.56 75.0003L1673.57 74.9953L1673.17 74.0803ZM1637.89 100.54L1637.1 99.9225L1637.1 99.9264L1637.89 100.54ZM1640.41 198.19L1639.58 198.75L1639.58 198.75L1640.41 198.19ZM1679.47 235.99L1678.94 236.84L1678.95 236.845L1678.96 236.85L1679.47 235.99ZM1743.1 268.12L1743.52 267.214L1743.51 267.209L1743.1 268.12ZM1816.18 307.18L1815.63 308.018L1815.64 308.024L1816.18 307.18ZM1862.8 356.32L1861.94 356.835L1861.95 356.845L1861.95 356.855L1862.8 356.32ZM1859.02 510.04L1859.83 510.628L1859.83 510.628L1859.02 510.04ZM1710.34 576.19V575.19C1668.88 575.19 1634.42 567.026 1606.9 550.759L1606.39 551.62L1605.88 552.481C1633.79 568.975 1668.63 577.19 1710.34 577.19V576.19ZM1606.39 551.62L1606.9 550.759C1579.38 534.502 1560.85 511.389 1551.27 481.386L1550.32 481.69L1549.36 481.995C1559.1 512.472 1577.95 535.978 1605.88 552.481L1606.39 551.62ZM1550.32 481.69L1551.1 482.309L1602.13 417.418L1601.35 416.8L1600.56 416.182L1549.53 481.072L1550.32 481.69ZM1601.35 416.8H1600.35C1600.35 445.473 1605.2 471.023 1614.92 493.428L1615.84 493.03L1616.75 492.632C1607.16 470.518 1602.35 445.247 1602.35 416.8H1601.35ZM1615.84 493.03L1614.93 493.443C1625.07 515.842 1639.03 533.419 1656.84 546.134L1657.42 545.32L1658 544.507C1640.52 532.022 1626.76 514.738 1616.75 492.618L1615.84 493.03ZM1657.42 545.32L1656.86 546.149C1675.09 558.448 1695.87 564.59 1719.16 564.59V563.59V562.59C1696.24 562.59 1675.86 556.553 1657.98 544.491L1657.42 545.32ZM1719.16 563.59V564.59C1738.24 564.59 1756.46 559.712 1773.83 549.972L1773.34 549.1L1772.85 548.228C1755.77 557.808 1737.88 562.59 1719.16 562.59V563.59ZM1773.34 549.1L1773.83 549.969C1791.63 539.799 1805.83 525.601 1816.41 507.393L1815.55 506.89L1814.68 506.388C1804.27 524.3 1790.32 538.242 1772.84 548.232L1773.34 549.1ZM1815.55 506.89L1816.41 507.399C1827.43 488.748 1832.93 467.358 1832.93 443.26H1831.93H1830.93C1830.93 467.043 1825.5 488.073 1814.69 506.382L1815.55 506.89ZM1831.93 443.26H1832.93C1832.93 421.255 1827.63 402.567 1817 387.25L1816.18 387.82L1815.36 388.391C1825.72 403.314 1830.93 421.585 1830.93 443.26H1831.93ZM1816.18 387.82L1817 387.25C1806.42 372.013 1793.08 359.527 1777 349.795L1776.49 350.65L1775.97 351.506C1791.81 361.094 1804.94 373.388 1815.36 388.391L1816.18 387.82ZM1776.49 350.65L1777.03 349.811C1761.44 339.696 1740.18 328.334 1713.28 315.725L1712.86 316.63L1712.43 317.536C1739.29 330.126 1760.46 341.444 1775.94 351.489L1776.49 350.65ZM1712.86 316.63L1713.29 315.728C1683.49 301.458 1659.59 288.46 1641.58 276.732L1641.04 277.57L1640.49 278.408C1658.6 290.201 1682.58 303.242 1712.42 317.532L1712.86 316.63ZM1641.04 277.57L1641.58 276.732C1623.65 265.053 1608.41 249.616 1595.88 230.404L1595.05 230.95L1594.21 231.497C1606.88 250.925 1622.31 266.567 1640.49 278.408L1641.04 277.57ZM1595.05 230.95L1595.88 230.404C1583.41 211.281 1577.15 187.543 1577.15 159.13H1576.15H1575.15C1575.15 187.838 1581.48 211.979 1594.21 231.497L1595.05 230.95ZM1576.15 159.13H1577.15C1577.15 137.922 1583.38 119.238 1595.84 103.04L1595.05 102.43L1594.25 101.821C1581.51 118.382 1575.15 137.498 1575.15 159.13H1576.15ZM1595.05 102.43L1595.84 103.04C1608.32 86.8154 1624.97 74.5287 1645.82 66.1888L1645.45 65.2603L1645.08 64.3319C1623.92 72.792 1606.97 85.2853 1594.25 101.821L1595.05 102.43ZM1645.45 65.2603L1645.83 66.185C1667.12 57.4181 1690.09 53.0303 1714.75 53.0303V52.0303V51.0303C1689.85 51.0303 1666.61 55.4625 1645.07 64.3357L1645.45 65.2603ZM1714.75 52.0303V53.0303C1733.58 53.0303 1749.43 55.1236 1762.32 59.282L1762.63 58.3303L1762.93 57.3786C1749.78 53.137 1733.71 51.0303 1714.75 51.0303V52.0303ZM1762.63 58.3303L1762.33 59.2848C1775.71 63.468 1790.37 69.3292 1806.3 76.8741L1806.73 75.9703L1807.15 75.0666C1791.16 67.4914 1776.42 61.5927 1762.92 57.3758L1762.63 58.3303ZM1806.73 75.9703L1806.28 76.8647C1817.21 82.3324 1826.48 86.5471 1834.08 89.5023L1834.45 88.5703L1834.81 87.6383C1827.29 84.7136 1818.08 80.5282 1807.17 75.0759L1806.73 75.9703ZM1834.45 88.5703L1834.15 89.5239C1842.23 92.0763 1850.73 93.3503 1859.65 93.3503V92.3503V91.3503C1850.92 91.3503 1842.63 90.1044 1834.75 87.6168L1834.45 88.5703ZM1859.65 92.3503L1858.86 91.7278L1814.76 147.168L1815.55 147.79L1816.33 148.413L1860.43 92.9729L1859.65 92.3503ZM1815.55 147.79L1816.54 147.66C1813.15 121.84 1802.98 101.443 1785.96 86.5577L1785.31 87.3103L1784.65 88.0629C1801.24 102.578 1811.22 122.501 1814.55 147.92L1815.55 147.79ZM1785.31 87.3103L1785.98 86.5755C1769.37 71.2411 1746.63 63.6303 1717.9 63.6303V64.6303V65.6303C1746.28 65.6303 1768.48 73.1395 1784.63 88.0451L1785.31 87.3103ZM1717.9 64.6303V63.6303C1702.22 63.6303 1687.17 66.8096 1672.76 73.1654L1673.17 74.0803L1673.57 74.9953C1687.72 68.7511 1702.5 65.6303 1717.9 65.6303V64.6303ZM1673.17 74.0803L1672.79 73.1557C1658.35 79.0991 1646.45 88.0225 1637.1 99.9225L1637.89 100.54L1638.67 101.158C1647.8 89.5382 1659.42 80.8216 1673.55 75.005L1673.17 74.0803ZM1637.89 100.54L1637.1 99.9264C1628.13 111.452 1623.66 124.9 1623.66 140.23H1624.66H1625.66C1625.66 125.32 1630 112.309 1638.68 101.154L1637.89 100.54ZM1624.66 140.23H1623.66C1623.66 163.483 1628.94 183.01 1639.58 198.75L1640.41 198.19L1641.24 197.63C1630.87 182.291 1625.66 163.177 1625.66 140.23H1624.66ZM1640.41 198.19L1639.58 198.75C1650.15 214.404 1663.28 227.103 1678.94 236.84L1679.47 235.99L1679.99 235.141C1664.58 225.557 1651.66 213.057 1641.24 197.63L1640.41 198.19ZM1679.47 235.99L1678.96 236.85C1694.54 246.117 1715.79 256.844 1742.68 269.031L1743.1 268.12L1743.51 267.209C1716.64 255.037 1695.47 244.344 1679.98 235.131L1679.47 235.99ZM1743.1 268.12L1742.67 269.027C1773.31 283.297 1797.63 296.294 1815.63 308.018L1816.18 307.18L1816.72 306.342C1798.61 294.546 1774.2 281.504 1743.52 267.214L1743.1 268.12ZM1816.18 307.18L1815.64 308.024C1833.97 319.691 1849.41 335.952 1861.94 356.835L1862.8 356.32L1863.65 355.806C1850.98 334.689 1835.34 318.189 1816.71 306.337L1816.18 307.18ZM1862.8 356.32L1861.95 356.855C1874.84 377.232 1881.33 403.282 1881.33 435.07H1882.33H1883.33C1883.33 403.019 1876.79 376.568 1863.64 355.786L1862.8 356.32ZM1882.33 435.07H1881.33C1881.33 463.437 1873.61 488.218 1858.21 509.453L1859.02 510.04L1859.83 510.628C1875.5 489.023 1883.33 463.824 1883.33 435.07H1882.33ZM1859.02 510.04L1858.21 509.453C1842.78 530.718 1822.14 546.989 1796.25 558.264L1796.65 559.18L1797.05 560.097C1823.24 548.691 1844.17 532.203 1859.83 510.628L1859.02 510.04ZM1796.65 559.18L1796.25 558.264C1770.35 569.543 1741.71 575.19 1710.34 575.19V576.19V577.19C1741.96 577.19 1770.87 571.498 1797.05 560.097L1796.65 559.18Z" fill="#C71C30" fill-opacity="0.4" mask="url(#path-1-outside-1_2002_327)"></path></svg>